STARTFONT 2.3
FONT -FontForge-Zen Loop-Book-R-Normal--28-280-72-72-P-89-ISO10646-1
SIZE 28 72 72  2
FONTBOUNDINGBOX 24 30 -3 -7
COMMENT "Generated by fontforge, http://fontforge.sourceforge.net"
COMMENT "Copyright 2021 The Zen-Loop Project Authors (https://github.com/googlefonts/zen-loop)"
STARTPROPERTIES 40
FOUNDRY "FontForge"
FAMILY_NAME "Zen Loop"
WEIGHT_NAME "Book"
SLANT "R"
SETWIDTH_NAME "Normal"
ADD_STYLE_NAME ""
PIXEL_SIZE 28
POINT_SIZE 280
RESOLUTION_X 72
RESOLUTION_Y 72
SPACING "P"
AVERAGE_WIDTH 89
CHARSET_REGISTRY "ISO10646"
CHARSET_ENCODING "1"
FONTNAME_REGISTRY ""
CHARSET_COLLECTIONS "ISO10646-1"
BITS_PER_PIXEL 2
FONT_NAME "ZenLoop-Regular"
FACE_NAME "Zen Loop Regular"
COPYRIGHT "Copyright 2021 The Zen-Loop Project Authors (https://github.com/googlefonts/zen-loop)"
FONT_VERSION "1.000; ttfautohint (v1.8.3)"
FONT_ASCENT 22
FONT_DESCENT 6
UNDERLINE_POSITION -4
UNDERLINE_THICKNESS 1
X_HEIGHT 12
CAP_HEIGHT 18
RAW_ASCENT 800
RAW_DESCENT 200
NORM_SPACE 7
RELATIVE_WEIGHT 40
RELATIVE_SETWIDTH 50
SUPERSCRIPT_X 0
SUPERSCRIPT_Y 9
SUPERSCRIPT_SIZE 16
SUBSCRIPT_X 0
SUBSCRIPT_Y 2
SUBSCRIPT_SIZE 16
AVG_LOWERCASE_WIDTH 81
AVG_UPPERCASE_WIDTH 107
ENDPROPERTIES
CHARS 248
STARTCHAR CR
ENCODING 13
SWIDTH 600 0
DWIDTH 17 0
BBX 1 1 0 0
BITMAP
00
ENDCHAR
STARTCHAR space
ENCODING 32
SWIDTH 240 0
DWIDTH 7 0
BBX 1 1 0 0
BITMAP
00
ENDCHAR
STARTCHAR exclam
ENCODING 33
SWIDTH 141 0
DWIDTH 4 0
BBX 2 19 1 0
BITMAP
50
50
50
50
50
50
50
50
50
50
50
50
50
50
00
00
50
50
50
ENDCHAR
STARTCHAR quotedbl
ENCODING 34
SWIDTH 195 0
DWIDTH 5 0
BBX 3 5 1 14
BITMAP
84
88
88
88
88
ENDCHAR
STARTCHAR numbersign
ENCODING 35
SWIDTH 454 0
DWIDTH 13 0
BBX 12 19 0 0
BITMAP
002008
002004
002014
005010
005020
008020
0AEAAA
008050
014050
014080
020080
020080
6AAAA8
010140
050200
040200
080200
080200
080100
ENDCHAR
STARTCHAR dollar
ENCODING 36
SWIDTH 356 0
DWIDTH 10 0
BBX 9 24 0 -2
BITMAP
004000
004000
004000
02A900
084200
204040
204000
204000
204000
084000
028000
009000
006400
004600
004140
004080
004080
504080
204080
184240
02A800
004000
004000
004000
ENDCHAR
STARTCHAR percent
ENCODING 37
SWIDTH 470 0
DWIDTH 13 0
BBX 11 19 1 0
BITMAP
1A4020
508040
805080
805140
802200
805100
805800
208800
1A1400
002000
005290
008814
008808
011408
021408
051408
080808
040814
1002A0
ENDCHAR
STARTCHAR ampersand
ENCODING 38
SWIDTH 520 0
DWIDTH 15 0
BBX 13 19 1 0
BITMAP
00690000
00820000
01414000
01010000
01420000
01450000
00480000
00A00000
01C00000
06501900
08202100
20204000
50088000
80094000
80030000
80024000
80059000
20182400
1A900640
ENDCHAR
STARTCHAR quotesingle
ENCODING 39
SWIDTH 121 0
DWIDTH 3 0
BBX 1 5 1 14
BITMAP
80
80
80
80
80
ENDCHAR
STARTCHAR parenleft
ENCODING 40
SWIDTH 233 0
DWIDTH 7 0
BBX 4 23 2 -2
BITMAP
01
05
08
14
20
10
50
80
80
80
80
80
80
80
80
80
50
50
20
10
08
08
01
ENDCHAR
STARTCHAR parenright
ENCODING 41
SWIDTH 233 0
DWIDTH 7 0
BBX 4 23 1 -2
BITMAP
80
80
20
20
14
08
08
05
05
01
02
02
01
05
05
04
08
08
14
20
10
80
40
ENDCHAR
STARTCHAR asterisk
ENCODING 42
SWIDTH 313 0
DWIDTH 9 0
BBX 7 6 1 13
BITMAP
0200
0200
6664
0740
0980
1050
ENDCHAR
STARTCHAR plus
ENCODING 43
SWIDTH 577 0
DWIDTH 16 0
BBX 14 13 1 0
BITMAP
00050000
00050000
00050000
00050000
00050000
00050000
6AAAAA90
00050000
00050000
00050000
00050000
00050000
00050000
ENDCHAR
STARTCHAR comma
ENCODING 44
SWIDTH 145 0
DWIDTH 4 0
BBX 3 5 0 -2
BITMAP
14
14
14
14
60
ENDCHAR
STARTCHAR hyphen
ENCODING 45
SWIDTH 286 0
DWIDTH 8 0
BBX 6 1 1 7
BITMAP
6A90
ENDCHAR
STARTCHAR period
ENCODING 46
SWIDTH 181 0
DWIDTH 5 0
BBX 1 3 2 0
BITMAP
40
80
80
ENDCHAR
STARTCHAR slash
ENCODING 47
SWIDTH 292 0
DWIDTH 8 0
BBX 8 22 0 -2
BITMAP
0002
0002
0005
0008
0008
0014
0020
0020
0050
0080
0080
0140
0200
0200
0500
0800
0800
1400
2000
2000
5000
8000
ENDCHAR
STARTCHAR zero
ENCODING 48
SWIDTH 378 0
DWIDTH 11 0
BBX 9 19 1 0
BITMAP
06A000
180800
200500
200200
500200
800100
800140
800140
800140
800140
800140
800140
800140
800100
500200
200200
200500
180800
06A000
ENDCHAR
STARTCHAR one
ENCODING 49
SWIDTH 303 0
DWIDTH 8 0
BBX 7 19 1 0
BITMAP
1A00
A200
0200
0200
0200
0200
0200
0200
0200
0200
0200
0200
0200
0200
0200
0200
0200
0200
AAA8
ENDCHAR
STARTCHAR two
ENCODING 50
SWIDTH 343 0
DWIDTH 10 0
BBX 9 19 0 0
BITMAP
02A800
080200
200140
000140
000040
000140
000140
000200
000500
000800
002000
005000
014000
020000
080000
140000
200000
500000
6AAA40
ENDCHAR
STARTCHAR three
ENCODING 51
SWIDTH 377 0
DWIDTH 11 0
BBX 9 19 1 0
BITMAP
06A000
240800
100500
000100
000200
000500
000800
06A400
146800
1A4600
000200
000140
000140
000140
000140
000200
000200
900800
1AA000
ENDCHAR
STARTCHAR four
ENCODING 52
SWIDTH 389 0
DWIDTH 11 0
BBX 9 19 1 0
BITMAP
001400
002000
001000
008000
008000
020000
020800
050800
080800
140800
200800
500800
800800
AAAA40
000800
000800
000800
000800
000800
ENDCHAR
STARTCHAR five
ENCODING 53
SWIDTH 372 0
DWIDTH 10 0
BBX 9 20 1 0
BITMAP
000200
0AA900
080000
080000
080000
080000
080000
080000
0A9000
281800
940200
940200
600140
000140
000140
000140
000200
000200
900800
1AA000
ENDCHAR
STARTCHAR six
ENCODING 54
SWIDTH 360 0
DWIDTH 10 0
BBX 9 19 1 0
BITMAP
002000
008000
020000
050000
080000
100000
200000
500000
52A400
880900
800200
800200
800140
800140
800200
800200
500200
240800
0AA000
ENDCHAR
STARTCHAR seven
ENCODING 55
SWIDTH 321 0
DWIDTH 9 0
BBX 7 19 1 0
BITMAP
AAA8
0008
0014
0020
0020
0050
0080
0080
0140
0200
0200
0500
0800
0800
1400
2000
2000
5000
8000
ENDCHAR
STARTCHAR eight
ENCODING 56
SWIDTH 377 0
DWIDTH 11 0
BBX 9 19 1 0
BITMAP
0AA400
240900
500200
500200
400200
500200
200500
180800
066000
029000
181800
200500
900200
800140
800140
800140
500200
200500
0AA400
ENDCHAR
STARTCHAR nine
ENCODING 57
SWIDTH 360 0
DWIDTH 10 0
BBX 8 19 1 0
BITMAP
0AA0
2018
5005
8002
8002
4002
4002
8002
8002
2026
1A81
0005
0008
0008
0020
0060
0080
0200
0900
ENDCHAR
STARTCHAR colon
ENCODING 58
SWIDTH 181 0
DWIDTH 5 0
BBX 1 14 2 0
BITMAP
40
80
80
00
00
00
00
00
00
00
00
40
80
80
ENDCHAR
STARTCHAR semicolon
ENCODING 59
SWIDTH 165 0
DWIDTH 5 0
BBX 3 16 0 -2
BITMAP
04
14
14
00
00
00
00
00
00
00
00
14
14
14
14
60
ENDCHAR
STARTCHAR less
ENCODING 60
SWIDTH 482 0
DWIDTH 14 0
BBX 11 11 1 1
BITMAP
000018
000190
001900
019000
190000
600000
0A0000
00A000
000A00
0000A0
000008
ENDCHAR
STARTCHAR equal
ENCODING 61
SWIDTH 577 0
DWIDTH 16 0
BBX 14 5 1 4
BITMAP
6AAAAA90
00000000
00000000
00000000
6AAAAA90
ENDCHAR
STARTCHAR greater
ENCODING 62
SWIDTH 482 0
DWIDTH 14 0
BBX 11 11 1 1
BITMAP
500000
190000
019000
001900
000190
000018
000064
000640
006400
064000
640000
ENDCHAR
STARTCHAR question
ENCODING 63
SWIDTH 300 0
DWIDTH 8 0
BBX 6 19 1 0
BITMAP
2A40
8050
4020
0020
0020
0050
0080
0140
0200
0800
0800
1400
0800
0400
0000
0000
0400
0800
0800
ENDCHAR
STARTCHAR at
ENCODING 64
SWIDTH 748 0
DWIDTH 21 0
BBX 19 19 1 0
BITMAP
0006AA9000
00A0001900
02400A0240
0800208090
2400808020
2001408014
5002004008
8005000008
8008090008
8008120008
8014220008
8020180010
5020680020
2020300080
2420A40600
080A06A400
0240000080
00A0000A00
0006AA9000
ENDCHAR
STARTCHAR A
ENCODING 65
SWIDTH 414 0
DWIDTH 12 0
BBX 11 19 0 0
BITMAP
002000
002400
002800
005800
008500
008200
014200
020200
020140
020080
050080
0AAA90
080050
040020
140020
200014
200008
500008
400004
ENDCHAR
STARTCHAR B
ENCODING 66
SWIDTH 375 0
DWIDTH 11 0
BBX 8 19 1 0
BITMAP
6AA0
5008
5005
5002
5002
5002
5002
5692
5818
51A9
5002
5002
5002
5002
5002
5002
5005
5018
6A90
ENDCHAR
STARTCHAR C
ENCODING 67
SWIDTH 366 0
DWIDTH 10 0
BBX 8 19 1 0
BITMAP
02A9
0801
2400
2000
5000
8000
8000
8000
8000
8000
8000
8000
8000
8000
5000
2000
2400
0801
02A9
ENDCHAR
STARTCHAR D
ENCODING 68
SWIDTH 396 0
DWIDTH 11 0
BBX 9 19 1 0
BITMAP
6AA400
500900
500200
500140
500040
500080
500080
500080
500080
500080
500080
500080
500080
500080
500140
500140
500200
500900
6AA400
ENDCHAR
STARTCHAR E
ENCODING 69
SWIDTH 309 0
DWIDTH 9 0
BBX 7 19 1 0
BITMAP
6AA4
5000
5000
5000
5000
5000
5000
5000
6AA0
5000
5000
5000
5000
5000
5000
5000
5000
5000
6AA4
ENDCHAR
STARTCHAR F
ENCODING 70
SWIDTH 299 0
DWIDTH 8 0
BBX 7 19 1 0
BITMAP
6AA4
5000
5000
5000
5000
5000
5000
5000
6AA0
5000
5000
5000
5000
5000
5000
5000
5000
5000
5000
ENDCHAR
STARTCHAR G
ENCODING 71
SWIDTH 382 0
DWIDTH 11 0
BBX 9 19 1 0
BITMAP
02A900
080100
240000
200000
500000
800000
800000
800000
800000
800000
800000
802A40
800080
800080
500080
200080
240080
080140
02A900
ENDCHAR
STARTCHAR H
ENCODING 72
SWIDTH 425 0
DWIDTH 12 0
BBX 10 19 1 0
BITMAP
500050
500050
500050
500050
500050
500050
500050
500050
6AAA90
500050
500050
500050
500050
500050
500050
500050
500050
500050
500050
ENDCHAR
STARTCHAR I
ENCODING 73
SWIDTH 141 0
DWIDTH 4 0
BBX 2 19 1 0
BITMAP
50
50
50
50
50
50
50
50
50
50
50
50
50
50
50
50
50
50
50
ENDCHAR
STARTCHAR J
ENCODING 74
SWIDTH 142 0
DWIDTH 4 0
BBX 6 24 -3 -5
BITMAP
0050
0050
0050
0050
0050
0050
0050
0050
0050
0050
0050
0050
0050
0050
0050
0050
0050
0050
0050
0050
0050
0080
0140
6900
ENDCHAR
STARTCHAR K
ENCODING 75
SWIDTH 401 0
DWIDTH 11 0
BBX 10 19 0 0
BITMAP
080020
080080
080140
080200
080100
080800
080800
1EA000
889800
A90200
080140
080080
080080
080080
080050
080010
080020
080020
080020
ENDCHAR
STARTCHAR L
ENCODING 76
SWIDTH 347 0
DWIDTH 10 0
BBX 8 19 1 0
BITMAP
5000
5000
5000
5000
5000
5000
5000
5000
5000
5000
5000
5000
5000
5000
5000
5000
5000
5000
6AA9
ENDCHAR
STARTCHAR M
ENCODING 77
SWIDTH 534 0
DWIDTH 15 0
BBX 13 19 1 0
BITMAP
18000900
26002500
21809200
20620200
201C0200
20150200
20220200
20220200
20220200
10180200
100C0100
50190140
50250140
50150140
40080140
80000040
80000080
80000080
80000080
ENDCHAR
STARTCHAR N
ENCODING 78
SWIDTH 422 0
DWIDTH 12 0
BBX 9 19 1 0
BITMAP
500040
600040
640040
580040
580040
550040
520040
514040
508040
505040
502040
502040
500440
500840
500540
500240
500180
5000C0
500080
ENDCHAR
STARTCHAR O
ENCODING 79
SWIDTH 446 0
DWIDTH 12 0
BBX 11 19 1 0
BITMAP
02A900
080140
240080
200050
500020
800020
800014
800014
800014
800014
800014
800014
800014
800020
500020
200050
240080
080140
02A900
ENDCHAR
STARTCHAR P
ENCODING 80
SWIDTH 341 0
DWIDTH 10 0
BBX 8 19 1 0
BITMAP
6AA0
5008
5005
5002
5002
5002
5001
5008
5024
6A90
5000
5000
5000
5000
5000
5000
5000
5000
5000
ENDCHAR
STARTCHAR Q
ENCODING 81
SWIDTH 446 0
DWIDTH 12 0
BBX 11 26 1 -7
BITMAP
02A900
080140
240080
200050
500020
800020
800014
800014
800014
800014
800014
800014
A00074
9901A0
524520
206450
246080
088A40
02AD00
008800
006400
002000
006000
009400
009400
006000
ENDCHAR
STARTCHAR R
ENCODING 82
SWIDTH 380 0
DWIDTH 11 0
BBX 10 19 0 0
BITMAP
1AA900
140200
140080
140080
140080
140080
140080
6A4200
A46900
2A9800
140200
140100
140140
140080
140080
140040
140050
140020
140020
ENDCHAR
STARTCHAR S
ENCODING 83
SWIDTH 356 0
DWIDTH 10 0
BBX 9 19 0 0
BITMAP
02A800
080200
200040
200000
200000
200000
140000
050000
014000
006000
001800
000200
000080
000080
000080
500080
200080
180240
06A900
ENDCHAR
STARTCHAR T
ENCODING 84
SWIDTH 377 0
DWIDTH 11 0
BBX 10 19 0 0
BITMAP
6AAAA0
002000
002000
002000
002000
002000
002000
002000
002000
002000
002000
002000
002000
002000
002000
002000
002000
002000
002000
ENDCHAR
STARTCHAR U
ENCODING 85
SWIDTH 412 0
DWIDTH 12 0
BBX 9 19 1 0
BITMAP
800040
800040
800040
800040
800040
800040
800040
800040
800040
800040
800040
800040
800040
800040
800040
800080
500080
240240
0AA900
ENDCHAR
STARTCHAR V
ENCODING 86
SWIDTH 384 0
DWIDTH 11 0
BBX 11 19 0 0
BITMAP
400014
500020
200020
200010
200050
140080
080080
080040
080140
050200
020200
020100
020500
014800
008800
008400
009400
007000
002000
ENDCHAR
STARTCHAR W
ENCODING 87
SWIDTH 534 0
DWIDTH 15 0
BBX 13 19 1 0
BITMAP
80000080
80000080
80000080
80000040
40000140
50000140
50190140
50220140
10220100
10220200
20150200
200C0200
20080200
20150200
20220200
20808200
22405200
25001500
14000500
ENDCHAR
STARTCHAR X
ENCODING 88
SWIDTH 318 0
DWIDTH 9 0
BBX 9 19 0 0
BITMAP
100200
200200
140500
080800
080400
012000
022000
019000
00C000
00C000
015000
022000
051400
080800
080800
100500
200200
500100
800040
ENDCHAR
STARTCHAR Y
ENCODING 89
SWIDTH 370 0
DWIDTH 10 0
BBX 10 19 0 0
BITMAP
800020
500020
200080
140080
080140
050200
020500
014800
009400
00A000
006000
001000
001000
001000
001000
001000
001000
001000
001000
ENDCHAR
STARTCHAR Z
ENCODING 90
SWIDTH 309 0
DWIDTH 9 0
BBX 8 19 0 0
BITMAP
2AAA
0001
0004
0008
0014
0020
0020
0050
0080
0040
0200
0200
0500
0800
0800
1400
2000
1000
6AAA
ENDCHAR
STARTCHAR bracketleft
ENCODING 91
SWIDTH 193 0
DWIDTH 5 0
BBX 5 23 1 -2
BITMAP
6A40
5000
5000
5000
5000
5000
5000
5000
5000
5000
5000
5000
5000
5000
5000
5000
5000
5000
5000
5000
5000
5000
6A40
ENDCHAR
STARTCHAR backslash
ENCODING 92
SWIDTH 292 0
DWIDTH 8 0
BBX 8 22 0 -2
BITMAP
8000
4000
1000
2000
1400
0800
0800
0500
0200
0200
0140
0080
0080
0050
0020
0020
0014
0008
0008
0005
0002
0002
ENDCHAR
STARTCHAR bracketright
ENCODING 93
SWIDTH 193 0
DWIDTH 5 0
BBX 4 23 0 -2
BITMAP
AA
02
02
02
02
02
02
02
02
02
02
02
02
02
02
02
02
02
02
02
02
02
AA
ENDCHAR
STARTCHAR asciicircum
ENCODING 94
SWIDTH 416 0
DWIDTH 12 0
BBX 11 11 0 8
BITMAP
001000
002800
005800
008200
014200
020080
050080
080020
140020
200008
500008
ENDCHAR
STARTCHAR underscore
ENCODING 95
SWIDTH 556 0
DWIDTH 16 0
BBX 14 1 1 -1
BITMAP
6AAAAA90
ENDCHAR
STARTCHAR grave
ENCODING 96
SWIDTH 201 0
DWIDTH 6 0
BBX 2 3 2 15
BITMAP
80
50
20
ENDCHAR
STARTCHAR a
ENCODING 97
SWIDTH 315 0
DWIDTH 9 0
BBX 7 13 1 0
BITMAP
1A80
5050
0020
0020
0020
0060
0660
2420
8020
8020
4020
80A0
6A28
ENDCHAR
STARTCHAR b
ENCODING 98
SWIDTH 298 0
DWIDTH 8 0
BBX 7 19 1 0
BITMAP
5000
5000
5000
5000
5000
5000
5A40
6050
5020
5020
5020
5014
5014
5014
5020
5020
5020
6050
5A40
ENDCHAR
STARTCHAR c
ENCODING 99
SWIDTH 275 0
DWIDTH 8 0
BBX 6 13 1 0
BITMAP
0A80
2050
5020
8000
8000
8000
8000
8000
8000
8000
5020
2050
0A80
ENDCHAR
STARTCHAR d
ENCODING 100
SWIDTH 298 0
DWIDTH 8 0
BBX 6 19 1 0
BITMAP
0020
0020
0020
0020
0020
0020
1A60
2060
5020
8020
8020
8020
8020
8020
8020
8020
5020
2060
1A60
ENDCHAR
STARTCHAR e
ENCODING 101
SWIDTH 285 0
DWIDTH 8 0
BBX 6 13 1 0
BITMAP
0A40
2050
5020
8020
8020
AAA0
8000
8000
8000
8000
5020
2060
0A80
ENDCHAR
STARTCHAR f
ENCODING 102
SWIDTH 178 0
DWIDTH 5 0
BBX 7 19 0 0
BITMAP
01A4
0600
0800
0800
0800
0800
AA80
0800
0800
0800
0800
0800
0800
0800
0800
0800
0800
0800
0800
ENDCHAR
STARTCHAR g
ENCODING 103
SWIDTH 302 0
DWIDTH 8 0
BBX 9 20 0 -5
BITMAP
000400
000400
06A400
081800
140800
200400
200500
200800
140800
081400
069000
240000
200000
0A5000
105900
800140
800080
800040
900200
1AA800
ENDCHAR
STARTCHAR h
ENCODING 104
SWIDTH 307 0
DWIDTH 9 0
BBX 7 19 1 0
BITMAP
5000
5000
5000
5000
5000
5000
5A90
6020
5010
5014
5014
5014
5014
5014
5014
5014
5014
5014
5014
ENDCHAR
STARTCHAR i
ENCODING 105
SWIDTH 141 0
DWIDTH 4 0
BBX 2 17 1 0
BITMAP
50
50
50
00
50
50
50
50
50
50
50
50
50
50
50
50
50
ENDCHAR
STARTCHAR j
ENCODING 106
SWIDTH 141 0
DWIDTH 4 0
BBX 5 22 -2 -5
BITMAP
0140
0140
0140
0000
0140
0140
0140
0140
0140
0140
0140
0140
0140
0140
0140
0140
0140
0140
0140
0200
0600
A400
ENDCHAR
STARTCHAR k
ENCODING 107
SWIDTH 287 0
DWIDTH 8 0
BBX 7 19 1 0
BITMAP
5000
5000
5000
5000
5000
5000
5010
5050
5080
5200
5A00
6600
6140
5080
5080
5050
5020
5020
5014
ENDCHAR
STARTCHAR l
ENCODING 108
SWIDTH 141 0
DWIDTH 4 0
BBX 2 19 1 0
BITMAP
50
50
50
50
50
50
50
50
50
50
50
50
50
50
50
50
50
50
50
ENDCHAR
STARTCHAR m
ENCODING 109
SWIDTH 407 0
DWIDTH 11 0
BBX 9 13 1 0
BITMAP
6001C0
590A80
526480
509080
509080
50A080
516080
50A080
509080
500080
500080
500080
500080
ENDCHAR
STARTCHAR n
ENCODING 110
SWIDTH 307 0
DWIDTH 9 0
BBX 7 13 1 0
BITMAP
5A90
6020
5010
5014
5014
5014
5014
5014
5014
5014
5014
5014
5014
ENDCHAR
STARTCHAR o
ENCODING 111
SWIDTH 309 0
DWIDTH 9 0
BBX 7 13 1 0
BITMAP
0A40
2050
5020
8014
8014
8004
8008
8004
8014
8014
5020
2050
0A40
ENDCHAR
STARTCHAR p
ENCODING 112
SWIDTH 299 0
DWIDTH 8 0
BBX 8 19 0 -5
BITMAP
1400
1A90
6414
1408
1408
1404
1405
1405
1405
1404
1408
1408
1814
1690
1400
1400
1400
1400
1400
ENDCHAR
STARTCHAR q
ENCODING 113
SWIDTH 286 0
DWIDTH 8 0
BBX 7 18 1 -5
BITMAP
1A60
2060
5020
8020
8020
8020
8020
8020
8020
8020
5020
2060
1A60
0020
0020
0020
0020
0018
ENDCHAR
STARTCHAR r
ENCODING 114
SWIDTH 277 0
DWIDTH 8 0
BBX 6 13 1 0
BITMAP
5A90
6020
5010
5000
5000
5000
5000
5000
5000
5000
5000
5000
5000
ENDCHAR
STARTCHAR s
ENCODING 115
SWIDTH 257 0
DWIDTH 7 0
BBX 7 13 0 0
BITMAP
0A90
2020
2000
2000
1400
0900
0240
0050
0020
0014
5014
2020
0A90
ENDCHAR
STARTCHAR t
ENCODING 116
SWIDTH 207 0
DWIDTH 6 0
BBX 5 17 0 0
BITMAP
0400
0800
0800
0800
6A80
0800
0800
0800
0800
0800
0800
0800
0800
0800
0800
0800
0280
ENDCHAR
STARTCHAR u
ENCODING 117
SWIDTH 307 0
DWIDTH 9 0
BBX 6 13 1 0
BITMAP
8020
8020
8020
8020
8020
8020
8020
8020
8020
8020
8020
5060
2A60
ENDCHAR
STARTCHAR v
ENCODING 118
SWIDTH 285 0
DWIDTH 8 0
BBX 8 13 0 0
BITMAP
5005
1004
2008
2008
1414
0410
0820
0820
0550
0140
0280
0280
0140
ENDCHAR
STARTCHAR w
ENCODING 119
SWIDTH 396 0
DWIDTH 11 0
BBX 10 13 1 0
BITMAP
400050
800040
800080
808080
816080
812080
815080
80D080
40C080
526140
551540
680A40
200200
ENDCHAR
STARTCHAR x
ENCODING 120
SWIDTH 244 0
DWIDTH 7 0
BBX 6 13 0 0
BITMAP
2020
2010
1480
0880
0940
0300
0200
0640
0880
1480
2050
2020
5010
ENDCHAR
STARTCHAR y
ENCODING 121
SWIDTH 285 0
DWIDTH 8 0
BBX 8 18 0 -5
BITMAP
5005
1004
2008
2008
1414
0410
0820
0820
0550
0140
0280
0280
0140
0100
0200
0200
0500
6400
ENDCHAR
STARTCHAR z
ENCODING 122
SWIDTH 233 0
DWIDTH 7 0
BBX 6 13 0 0
BITMAP
2AA0
0010
0040
0080
0140
0200
0200
0400
0800
1400
2000
2000
6AA0
ENDCHAR
STARTCHAR braceleft
ENCODING 123
SWIDTH 306 0
DWIDTH 9 0
BBX 9 23 0 -2
BITMAP
001A40
002000
001000
001000
001000
001000
001000
001000
001000
005000
2A8000
51C000
298000
005000
001000
001000
001000
001000
001000
001000
001000
002000
001A40
ENDCHAR
STARTCHAR bar
ENCODING 124
SWIDTH 141 0
DWIDTH 4 0
BBX 2 22 1 -2
BITMAP
50
50
50
50
50
50
50
50
50
50
50
50
50
50
50
50
50
50
50
50
50
50
ENDCHAR
STARTCHAR braceright
ENCODING 125
SWIDTH 306 0
DWIDTH 9 0
BBX 8 23 0 -2
BITMAP
A800
0200
0200
0200
0200
0200
0200
0200
0200
0200
0269
01C2
0269
0200
0200
0200
0200
0200
0200
0200
0200
0200
A800
ENDCHAR
STARTCHAR asciitilde
ENCODING 126
SWIDTH 433 0
DWIDTH 12 0
BBX 10 2 1 6
BITMAP
2A5020
401A80
ENDCHAR
STARTCHAR uni00A0
ENCODING 160
SWIDTH 240 0
DWIDTH 7 0
BBX 1 1 0 0
BITMAP
00
ENDCHAR
STARTCHAR exclamdown
ENCODING 161
SWIDTH 141 0
DWIDTH 4 0
BBX 2 19 1 -3
BITMAP
50
50
50
00
00
50
50
50
50
50
50
50
50
50
50
50
50
50
50
ENDCHAR
STARTCHAR cent
ENCODING 162
SWIDTH 275 0
DWIDTH 8 0
BBX 6 18 1 -2
BITMAP
0100
0200
0200
0A40
2650
5220
8200
8200
8200
8200
8200
8200
5210
2220
1A80
0600
0200
0100
ENDCHAR
STARTCHAR sterling
ENCODING 163
SWIDTH 331 0
DWIDTH 9 0
BBX 9 19 0 0
BITMAP
06A400
140600
200200
100000
500000
200000
200000
140000
080000
050000
2BA800
020000
014000
014000
020000
020000
080000
140000
7AAA40
ENDCHAR
STARTCHAR currency
ENCODING 164
SWIDTH 506 0
DWIDTH 14 0
BBX 12 11 1 3
BITMAP
500006
15AA58
090060
080014
100008
200008
140008
080024
0A00A0
24AA48
500001
ENDCHAR
STARTCHAR yen
ENCODING 165
SWIDTH 370 0
DWIDTH 10 0
BBX 10 19 0 0
BITMAP
800020
500020
200080
140080
080140
050200
020500
020800
008400
00A000
006000
001000
1AAA40
001000
1AAA40
001000
001000
001000
001000
ENDCHAR
STARTCHAR brokenbar
ENCODING 166
SWIDTH 141 0
DWIDTH 4 0
BBX 2 22 1 -2
BITMAP
50
50
50
50
50
50
50
50
50
00
00
00
00
50
50
50
50
50
50
50
50
50
ENDCHAR
STARTCHAR section
ENCODING 167
SWIDTH 303 0
DWIDTH 8 0
BBX 8 23 0 -3
BITMAP
06A0
1408
2001
1000
2000
2000
0800
0200
0100
1004
2005
2005
2409
1D68
07E0
0090
0014
0009
0002
0002
5005
2408
0690
ENDCHAR
STARTCHAR dieresis
ENCODING 168
SWIDTH 241 0
DWIDTH 7 0
BBX 4 3 1 14
BITMAP
51
52
51
ENDCHAR
STARTCHAR copyright
ENCODING 169
SWIDTH 772 0
DWIDTH 22 0
BBX 20 19 1 0
BITMAP
0006AA4000
0064006800
0240000240
0900690090
1401410020
2002000008
5002000008
8001000005
8005000005
8005000001
8005000005
8001000005
5002000008
2002000008
1401800020
0900690090
0240000240
0064006800
0006AA4000
ENDCHAR
STARTCHAR ordfeminine
ENCODING 170
SWIDTH 231 0
DWIDTH 6 0
BBX 6 8 0 11
BITMAP
1A40
1080
0080
0180
1980
1080
5180
29A0
ENDCHAR
STARTCHAR guillemotleft
ENCODING 171
SWIDTH 403 0
DWIDTH 11 0
BBX 9 11 1 3
BITMAP
004040
018180
020600
080800
202000
808000
605000
141400
050900
024240
008080
ENDCHAR
STARTCHAR logicalnot
ENCODING 172
SWIDTH 557 0
DWIDTH 16 0
BBX 14 5 1 4
BITMAP
6AAAAA90
00000010
00000010
00000010
00000010
ENDCHAR
STARTCHAR uni00AD
ENCODING 173
SWIDTH 286 0
DWIDTH 8 0
BBX 6 1 1 7
BITMAP
6A90
ENDCHAR
STARTCHAR registered
ENCODING 174
SWIDTH 772 0
DWIDTH 22 0
BBX 20 19 1 0
BITMAP
0006AA4000
0064006800
0240000240
0901A80090
1401420020
2001420008
5001420008
8001420005
8001460005
8001A90001
8001420005
8001420005
5001414008
2001408008
1401408020
0900004090
0240000240
0064006800
0006AA4000
ENDCHAR
STARTCHAR macron
ENCODING 175
SWIDTH 266 0
DWIDTH 7 0
BBX 4 1 2 16
BITMAP
A9
ENDCHAR
STARTCHAR degree
ENCODING 176
SWIDTH 350 0
DWIDTH 10 0
BBX 8 7 1 12
BITMAP
0690
2418
5005
8005
5005
2418
0690
ENDCHAR
STARTCHAR plusminus
ENCODING 177
SWIDTH 577 0
DWIDTH 16 0
BBX 14 13 1 0
BITMAP
00050000
00050000
00050000
00050000
00050000
6AAAAA90
00050000
00050000
00050000
00050000
00010000
00000000
6AAAAA90
ENDCHAR
STARTCHAR uni00B2
ENCODING 178
SWIDTH 207 0
DWIDTH 6 0
BBX 4 8 1 11
BITMAP
69
82
02
05
04
10
40
EA
ENDCHAR
STARTCHAR uni00B3
ENCODING 179
SWIDTH 214 0
DWIDTH 6 0
BBX 4 8 1 11
BITMAP
68
41
05
2C
06
02
42
A8
ENDCHAR
STARTCHAR acute
ENCODING 180
SWIDTH 201 0
DWIDTH 6 0
BBX 2 3 2 15
BITMAP
20
80
40
ENDCHAR
STARTCHAR uni00B5
ENCODING 181
SWIDTH 335 0
DWIDTH 9 0
BBX 8 18 1 -5
BITMAP
5014
5014
5014
5014
5014
5014
5014
5014
5014
5014
5014
5024
6A99
5000
5000
5000
5000
5000
ENDCHAR
STARTCHAR paragraph
ENCODING 182
SWIDTH 471 0
DWIDTH 13 0
BBX 11 19 1 0
BITMAP
06FE04
1FFE08
3FFE08
3FFE08
7FFE08
7FFE08
3FFE08
2FFE08
0BFE08
01AA08
000208
000208
000208
000208
000208
000208
000208
000208
000204
ENDCHAR
STARTCHAR periodcentered
ENCODING 183
SWIDTH 181 0
DWIDTH 5 0
BBX 1 3 2 7
BITMAP
40
80
80
ENDCHAR
STARTCHAR cedilla
ENCODING 184
SWIDTH 232 0
DWIDTH 7 0
BBX 3 5 2 -5
BITMAP
50
A4
08
08
A0
ENDCHAR
STARTCHAR uni00B9
ENCODING 185
SWIDTH 176 0
DWIDTH 5 0
BBX 5 8 0 11
BITMAP
2800
0800
0800
0800
0800
0800
0800
6E40
ENDCHAR
STARTCHAR ordmasculine
ENCODING 186
SWIDTH 201 0
DWIDTH 6 0
BBX 5 8 0 11
BITMAP
1A00
2140
1080
5080
5080
1080
2140
1A00
ENDCHAR
STARTCHAR guillemotright
ENCODING 187
SWIDTH 403 0
DWIDTH 11 0
BBX 9 11 1 2
BITMAP
808000
202000
080800
020600
018180
008080
024240
050500
141400
505000
404000
ENDCHAR
STARTCHAR onequarter
ENCODING 188
SWIDTH 527 0
DWIDTH 15 0
BBX 12 19 1 0
BITMAP
680001
080008
080008
080020
080020
080080
080080
6E0200
000200
000800
000800
002004
002020
008018
008088
020048
0201AA
080008
040008
ENDCHAR
STARTCHAR onehalf
ENCODING 189
SWIDTH 540 0
DWIDTH 15 0
BBX 13 19 1 0
BITMAP
68000100
08000800
08000800
08002000
08002000
08008000
08008000
6E020000
00020000
00080000
00080000
00201A00
00202140
00800040
00800100
02000500
02001400
08001000
04006A40
ENDCHAR
STARTCHAR threequarters
ENCODING 190
SWIDTH 517 0
DWIDTH 14 0
BBX 13 19 1 0
BITMAP
68000100
41000800
05000800
2C002000
06002000
02008000
42008000
A8020000
00020000
00080000
00080000
00200800
00201400
00802400
00805500
02008500
0200AA40
08000500
04000500
ENDCHAR
STARTCHAR questiondown
ENCODING 191
SWIDTH 300 0
DWIDTH 8 0
BBX 7 19 1 -3
BITMAP
0200
0200
0100
0000
0000
0100
0140
0080
0080
0200
0500
0800
1400
2000
5000
5000
5004
2024
1A90
ENDCHAR
STARTCHAR Agrave
ENCODING 192
SWIDTH 414 0
DWIDTH 12 0
BBX 11 23 0 0
BITMAP
008000
005000
001000
000000
002000
002400
002800
005800
008500
008200
014200
020200
020140
020080
050080
0AAA90
080050
040020
140020
200014
200008
500008
400004
ENDCHAR
STARTCHAR Aacute
ENCODING 193
SWIDTH 414 0
DWIDTH 12 0
BBX 11 23 0 0
BITMAP
000100
000800
000400
000000
002000
002400
002800
005800
008500
008200
014200
020200
020140
020080
050080
0AAA90
080050
040020
140020
200014
200008
500008
400004
ENDCHAR
STARTCHAR Acircumflex
ENCODING 194
SWIDTH 414 0
DWIDTH 12 0
BBX 11 23 0 0
BITMAP
002400
008500
004100
000000
002000
002400
002800
005800
008500
008200
014200
020200
020140
020080
050080
0AAA90
080050
040020
140020
200014
200008
500008
400004
ENDCHAR
STARTCHAR Atilde
ENCODING 195
SWIDTH 414 0
DWIDTH 12 0
BBX 11 22 0 0
BITMAP
009100
011A00
000000
002000
002400
002800
005800
008500
008200
014200
020200
020140
020080
050080
0AAA90
080050
040020
140020
200014
200008
500008
400004
ENDCHAR
STARTCHAR Adieresis
ENCODING 196
SWIDTH 414 0
DWIDTH 12 0
BBX 11 23 0 0
BITMAP
004100
008500
008500
000000
002000
002400
002800
005800
008500
008200
014200
020200
020140
020080
050080
0AAA90
080050
040020
140020
200014
200008
500008
400004
ENDCHAR
STARTCHAR Aring
ENCODING 197
SWIDTH 414 0
DWIDTH 12 0
BBX 11 23 0 0
BITMAP
006800
008500
006800
000000
002000
002400
002800
005800
008500
008200
014200
020200
020140
020080
050080
0AAA90
080050
040020
140020
200014
200008
500008
400004
ENDCHAR
STARTCHAR AE
ENCODING 198
SWIDTH 545 0
DWIDTH 15 0
BBX 14 19 0 0
BITMAP
0000AAA0
00018000
00028000
00028000
00088000
00088000
00148000
00208000
0050AA90
00808000
00808000
02AA8000
02008000
05008000
08008000
14008000
20008000
20008000
4000AAA0
ENDCHAR
STARTCHAR Ccedilla
ENCODING 199
SWIDTH 366 0
DWIDTH 10 0
BBX 8 24 1 -5
BITMAP
02A9
0801
2400
2000
5000
8000
8000
8000
8000
8000
8000
8000
8000
8000
5000
2000
2400
0801
02A9
0050
00A4
0008
0008
00A4
ENDCHAR
STARTCHAR Egrave
ENCODING 200
SWIDTH 309 0
DWIDTH 9 0
BBX 7 23 1 0
BITMAP
0800
0500
0100
0000
6AA4
5000
5000
5000
5000
5000
5000
5000
6AA0
5000
5000
5000
5000
5000
5000
5000
5000
5000
6AA4
ENDCHAR
STARTCHAR Eacute
ENCODING 201
SWIDTH 309 0
DWIDTH 9 0
BBX 7 23 1 0
BITMAP
0050
0080
0140
0000
6AA4
5000
5000
5000
5000
5000
5000
5000
6AA0
5000
5000
5000
5000
5000
5000
5000
5000
5000
6AA4
ENDCHAR
STARTCHAR Ecircumflex
ENCODING 202
SWIDTH 309 0
DWIDTH 9 0
BBX 7 23 1 0
BITMAP
0240
0880
0410
0000
6AA4
5000
5000
5000
5000
5000
5000
5000
6AA0
5000
5000
5000
5000
5000
5000
5000
5000
5000
6AA4
ENDCHAR
STARTCHAR Edieresis
ENCODING 203
SWIDTH 309 0
DWIDTH 9 0
BBX 7 23 1 0
BITMAP
0440
0840
0840
0000
6AA4
5000
5000
5000
5000
5000
5000
5000
6AA0
5000
5000
5000
5000
5000
5000
5000
5000
5000
6AA4
ENDCHAR
STARTCHAR Igrave
ENCODING 204
SWIDTH 141 0
DWIDTH 4 0
BBX 3 23 0 0
BITMAP
80
20
10
00
14
14
14
14
14
14
14
14
14
14
14
14
14
14
14
14
14
14
14
ENDCHAR
STARTCHAR Iacute
ENCODING 205
SWIDTH 141 0
DWIDTH 4 0
BBX 3 23 1 0
BITMAP
08
14
10
00
50
50
50
50
50
50
50
50
50
50
50
50
50
50
50
50
50
50
50
ENDCHAR
STARTCHAR Icircumflex
ENCODING 206
SWIDTH 141 0
DWIDTH 4 0
BBX 4 23 0 0
BITMAP
28
55
41
00
14
14
14
14
14
14
14
14
14
14
14
14
14
14
14
14
14
14
14
ENDCHAR
STARTCHAR Idieresis
ENCODING 207
SWIDTH 141 0
DWIDTH 4 0
BBX 4 23 0 0
BITMAP
41
82
82
00
14
14
14
14
14
14
14
14
14
14
14
14
14
14
14
14
14
14
14
ENDCHAR
STARTCHAR Eth
ENCODING 208
SWIDTH 396 0
DWIDTH 11 0
BBX 10 19 0 0
BITMAP
1AA900
140240
140080
140050
140010
140020
140020
140020
140020
140020
6A9020
140020
140020
140020
140050
140050
140080
140240
1AA900
ENDCHAR
STARTCHAR Ntilde
ENCODING 209
SWIDTH 422 0
DWIDTH 12 0
BBX 9 22 1 0
BITMAP
028500
042800
000000
500040
600040
640040
580040
580040
550040
520040
514040
508040
505040
502040
502040
500440
500840
500540
500240
500180
5000C0
500080
ENDCHAR
STARTCHAR Ograve
ENCODING 210
SWIDTH 446 0
DWIDTH 12 0
BBX 11 23 1 0
BITMAP
014000
008000
005000
000000
02A900
080140
240080
200050
500020
800020
800014
800014
800014
800014
800014
800014
800014
800020
500020
200050
240080
080140
02A900
ENDCHAR
STARTCHAR Oacute
ENCODING 211
SWIDTH 446 0
DWIDTH 12 0
BBX 11 23 1 0
BITMAP
000800
001400
001000
000000
02A900
080140
240080
200050
500020
800020
800014
800014
800014
800014
800014
800014
800014
800020
500020
200050
240080
080140
02A900
ENDCHAR
STARTCHAR Ocircumflex
ENCODING 212
SWIDTH 446 0
DWIDTH 12 0
BBX 11 23 1 0
BITMAP
006000
018800
010400
000000
02A900
080140
240080
200050
500020
800020
800014
800014
800014
800014
800014
800014
800014
800020
500020
200050
240080
080140
02A900
ENDCHAR
STARTCHAR Otilde
ENCODING 213
SWIDTH 446 0
DWIDTH 12 0
BBX 11 22 1 0
BITMAP
029100
011900
000000
02A900
080140
240080
200050
500020
800020
800014
800014
800014
800014
800014
800014
800014
800020
500020
200050
240080
080140
02A900
ENDCHAR
STARTCHAR Odieresis
ENCODING 214
SWIDTH 446 0
DWIDTH 12 0
BBX 11 23 1 0
BITMAP
014400
014800
014800
000000
02A900
080140
240080
200050
500020
800020
800014
800014
800014
800014
800014
800014
800014
800020
500020
200050
240080
080140
02A900
ENDCHAR
STARTCHAR multiply
ENCODING 215
SWIDTH 445 0
DWIDTH 12 0
BBX 10 10 1 2
BITMAP
400010
200090
080240
020900
00A400
00A000
024800
090200
240080
500020
ENDCHAR
STARTCHAR Oslash
ENCODING 216
SWIDTH 446 0
DWIDTH 12 0
BBX 11 19 1 0
BITMAP
02A920
080290
2400C0
200190
500220
800520
800810
800814
802014
802014
804014
808014
814014
820020
550020
280050
240080
280140
52A900
ENDCHAR
STARTCHAR Ugrave
ENCODING 217
SWIDTH 412 0
DWIDTH 12 0
BBX 9 23 1 0
BITMAP
020000
014000
004000
000000
800040
800040
800040
800040
800040
800040
800040
800040
800040
800040
800040
800040
800040
800040
800040
800080
500080
240240
0AA900
ENDCHAR
STARTCHAR Uacute
ENCODING 218
SWIDTH 412 0
DWIDTH 12 0
BBX 9 23 1 0
BITMAP
000400
002000
001000
000000
800040
800040
800040
800040
800040
800040
800040
800040
800040
800040
800040
800040
800040
800040
800040
800080
500080
240240
0AA900
ENDCHAR
STARTCHAR Ucircumflex
ENCODING 219
SWIDTH 412 0
DWIDTH 12 0
BBX 9 23 1 0
BITMAP
009000
021400
010400
000000
800040
800040
800040
800040
800040
800040
800040
800040
800040
800040
800040
800040
800040
800040
800040
800080
500080
240240
0AA900
ENDCHAR
STARTCHAR Udieresis
ENCODING 220
SWIDTH 412 0
DWIDTH 12 0
BBX 9 23 1 0
BITMAP
011400
021400
021400
000000
800040
800040
800040
800040
800040
800040
800040
800040
800040
800040
800040
800040
800040
800040
800040
800080
500080
240240
0AA900
ENDCHAR
STARTCHAR Yacute
ENCODING 221
SWIDTH 370 0
DWIDTH 10 0
BBX 10 23 0 0
BITMAP
000800
001400
001000
000000
800020
500020
200080
140080
080140
050200
020500
014800
009400
00A000
006000
001000
001000
001000
001000
001000
001000
001000
001000
ENDCHAR
STARTCHAR Thorn
ENCODING 222
SWIDTH 341 0
DWIDTH 10 0
BBX 8 19 1 0
BITMAP
5000
5000
5000
5000
6A90
5018
5005
5002
5002
5002
5001
5008
5024
6A90
5000
5000
5000
5000
5000
ENDCHAR
STARTCHAR germandbls
ENCODING 223
SWIDTH 327 0
DWIDTH 9 0
BBX 7 19 1 0
BITMAP
1A80
2020
1020
5020
5010
5020
5020
56A0
58A0
5660
5004
5008
5008
5008
5008
5004
5014
5020
5A80
ENDCHAR
STARTCHAR agrave
ENCODING 224
SWIDTH 315 0
DWIDTH 9 0
BBX 7 18 1 0
BITMAP
0800
0800
0200
0000
0000
1A80
5050
0020
0020
0020
0060
0660
2420
8020
8020
4020
80A0
6A28
ENDCHAR
STARTCHAR aacute
ENCODING 225
SWIDTH 315 0
DWIDTH 9 0
BBX 7 18 1 0
BITMAP
0080
0140
0200
0000
0000
1A80
5050
0020
0020
0020
0060
0660
2420
8020
8020
4020
80A0
6A28
ENDCHAR
STARTCHAR acircumflex
ENCODING 226
SWIDTH 315 0
DWIDTH 9 0
BBX 7 18 1 0
BITMAP
0600
0980
2050
0000
0000
1A80
5050
0020
0020
0020
0060
0660
2420
8020
8020
4020
80A0
6A28
ENDCHAR
STARTCHAR atilde
ENCODING 227
SWIDTH 315 0
DWIDTH 9 0
BBX 7 17 1 0
BITMAP
2910
1190
0000
0000
1A80
5050
0020
0020
0020
0060
0660
2420
8020
8020
4020
80A0
6A28
ENDCHAR
STARTCHAR adieresis
ENCODING 228
SWIDTH 315 0
DWIDTH 9 0
BBX 7 17 1 0
BITMAP
1480
1480
1480
0000
1A80
5050
0020
0020
0020
0060
0660
2420
8020
8020
4020
80A0
6A28
ENDCHAR
STARTCHAR aring
ENCODING 229
SWIDTH 315 0
DWIDTH 9 0
BBX 7 18 1 0
BITMAP
0640
1480
1480
0640
0000
1A80
5050
0020
0020
0020
0060
0660
2420
8020
8020
4020
80A0
6A28
ENDCHAR
STARTCHAR ae
ENCODING 230
SWIDTH 450 0
DWIDTH 13 0
BBX 11 13 1 0
BITMAP
1A8290
505820
002414
003008
002008
01BAA8
292000
802000
802000
402000
802004
809824
2A0690
ENDCHAR
STARTCHAR ccedilla
ENCODING 231
SWIDTH 275 0
DWIDTH 8 0
BBX 6 18 1 -5
BITMAP
0A80
2050
5020
8000
8000
8000
8000
8000
8000
8000
5020
2050
0A80
0500
0A40
0080
0080
0A40
ENDCHAR
STARTCHAR egrave
ENCODING 232
SWIDTH 285 0
DWIDTH 8 0
BBX 6 18 1 0
BITMAP
1400
0800
0200
0000
0000
0A40
2050
5020
8020
8020
AAA0
8000
8000
8000
8000
5020
2060
0A80
ENDCHAR
STARTCHAR eacute
ENCODING 233
SWIDTH 285 0
DWIDTH 8 0
BBX 6 18 1 0
BITMAP
0080
0140
0200
0000
0000
0A40
2050
5020
8020
8020
AAA0
8000
8000
8000
8000
5020
2060
0A80
ENDCHAR
STARTCHAR ecircumflex
ENCODING 234
SWIDTH 285 0
DWIDTH 8 0
BBX 6 18 1 0
BITMAP
0600
0940
2050
0000
0000
0A40
2050
5020
8020
8020
AAA0
8000
8000
8000
8000
5020
2060
0A80
ENDCHAR
STARTCHAR edieresis
ENCODING 235
SWIDTH 285 0
DWIDTH 8 0
BBX 6 17 1 0
BITMAP
1080
1080
1080
0000
0A40
2050
5020
8020
8020
AAA0
8000
8000
8000
8000
5020
2060
0A80
ENDCHAR
STARTCHAR igrave
ENCODING 236
SWIDTH 141 0
DWIDTH 4 0
BBX 3 18 0 0
BITMAP
50
20
14
00
00
14
14
14
14
14
14
14
14
14
14
14
14
14
ENDCHAR
STARTCHAR iacute
ENCODING 237
SWIDTH 141 0
DWIDTH 4 0
BBX 3 18 1 0
BITMAP
14
20
50
00
00
50
50
50
50
50
50
50
50
50
50
50
50
50
ENDCHAR
STARTCHAR icircumflex
ENCODING 238
SWIDTH 141 0
DWIDTH 4 0
BBX 4 18 0 0
BITMAP
14
55
82
00
00
14
14
14
14
14
14
14
14
14
14
14
14
14
ENDCHAR
STARTCHAR idieresis
ENCODING 239
SWIDTH 141 0
DWIDTH 4 0
BBX 4 17 0 0
BITMAP
82
82
82
00
14
14
14
14
14
14
14
14
14
14
14
14
14
ENDCHAR
STARTCHAR eth
ENCODING 240
SWIDTH 319 0
DWIDTH 9 0
BBX 7 19 1 0
BITMAP
2000
0800
0264
1A80
0080
0020
0AA0
2024
5004
8008
8008
8008
8008
8008
8008
8014
5020
2060
0A80
ENDCHAR
STARTCHAR ntilde
ENCODING 241
SWIDTH 307 0
DWIDTH 9 0
BBX 7 17 1 0
BITMAP
2910
1190
0000
0000
5A90
6020
5010
5014
5014
5014
5014
5014
5014
5014
5014
5014
5014
ENDCHAR
STARTCHAR ograve
ENCODING 242
SWIDTH 309 0
DWIDTH 9 0
BBX 7 18 1 0
BITMAP
0800
0500
0200
0000
0000
0A40
2050
5020
8014
8014
8004
8008
8004
8014
8014
5020
2050
0A40
ENDCHAR
STARTCHAR oacute
ENCODING 243
SWIDTH 309 0
DWIDTH 9 0
BBX 7 18 1 0
BITMAP
0080
0140
0200
0000
0000
0A40
2050
5020
8014
8014
8004
8008
8004
8014
8014
5020
2050
0A40
ENDCHAR
STARTCHAR ocircumflex
ENCODING 244
SWIDTH 309 0
DWIDTH 9 0
BBX 7 18 1 0
BITMAP
0600
0980
2050
0000
0000
0A40
2050
5020
8014
8014
8004
8008
8004
8014
8014
5020
2050
0A40
ENDCHAR
STARTCHAR otilde
ENCODING 245
SWIDTH 309 0
DWIDTH 9 0
BBX 7 17 1 0
BITMAP
2910
1190
0000
0000
0A40
2050
5020
8014
8014
8004
8008
8004
8014
8014
5020
2050
0A40
ENDCHAR
STARTCHAR odieresis
ENCODING 246
SWIDTH 309 0
DWIDTH 9 0
BBX 7 17 1 0
BITMAP
1480
1480
1480
0000
0A40
2050
5020
8014
8014
8004
8008
8004
8014
8014
5020
2050
0A40
ENDCHAR
STARTCHAR divide
ENCODING 247
SWIDTH 577 0
DWIDTH 16 0
BBX 14 13 1 0
BITMAP
00050000
00050000
00010000
00000000
00000000
00000000
6AAAAA90
00000000
00000000
00000000
00010000
00050000
00050000
ENDCHAR
STARTCHAR oslash
ENCODING 248
SWIDTH 309 0
DWIDTH 9 0
BBX 7 13 1 0
BITMAP
0A54
2060
5060
80A0
8094
8204
8208
8504
8814
9414
6020
6050
5A80
ENDCHAR
STARTCHAR ugrave
ENCODING 249
SWIDTH 307 0
DWIDTH 9 0
BBX 6 18 1 0
BITMAP
0800
0800
0200
0000
0000
8020
8020
8020
8020
8020
8020
8020
8020
8020
8020
8020
5060
2A60
ENDCHAR
STARTCHAR uacute
ENCODING 250
SWIDTH 307 0
DWIDTH 9 0
BBX 6 18 1 0
BITMAP
0080
0140
0200
0000
0000
8020
8020
8020
8020
8020
8020
8020
8020
8020
8020
8020
5060
2A60
ENDCHAR
STARTCHAR ucircumflex
ENCODING 251
SWIDTH 307 0
DWIDTH 9 0
BBX 6 18 1 0
BITMAP
0600
0980
2050
0000
0000
8020
8020
8020
8020
8020
8020
8020
8020
8020
8020
8020
5060
2A60
ENDCHAR
STARTCHAR udieresis
ENCODING 252
SWIDTH 307 0
DWIDTH 9 0
BBX 6 17 1 0
BITMAP
1480
1480
1480
0000
8020
8020
8020
8020
8020
8020
8020
8020
8020
8020
8020
5060
2A60
ENDCHAR
STARTCHAR yacute
ENCODING 253
SWIDTH 285 0
DWIDTH 8 0
BBX 8 23 0 -5
BITMAP
0060
0080
0140
0000
0000
5005
1004
2008
2008
1414
0410
0820
0820
0550
0140
0280
0280
0140
0100
0200
0200
0500
6400
ENDCHAR
STARTCHAR thorn
ENCODING 254
SWIDTH 299 0
DWIDTH 8 0
BBX 8 24 0 -5
BITMAP
1400
1400
1400
1400
1400
1400
1A90
6414
1408
1408
1404
1405
1405
1405
1404
1408
1408
1814
1690
1400
1400
1400
1400
1400
ENDCHAR
STARTCHAR ydieresis
ENCODING 255
SWIDTH 285 0
DWIDTH 8 0
BBX 8 22 0 -5
BITMAP
0820
0820
0820
0000
5005
1004
2008
2008
1414
0410
0820
0820
0550
0140
0280
0280
0140
0100
0200
0200
0500
6400
ENDCHAR
STARTCHAR dotlessi
ENCODING 305
SWIDTH 141 0
DWIDTH 4 0
BBX 2 13 1 0
BITMAP
50
50
50
50
50
50
50
50
50
50
50
50
50
ENDCHAR
STARTCHAR OE
ENCODING 338
SWIDTH 505 0
DWIDTH 14 0
BBX 12 19 1 0
BITMAP
02AAAA
080800
240800
200800
500800
800800
800800
800800
800AA9
800800
800800
800800
800800
800800
500800
200800
240800
080800
02AAAA
ENDCHAR
STARTCHAR oe
ENCODING 339
SWIDTH 492 0
DWIDTH 14 0
BBX 12 13 1 0
BITMAP
0A41A4
205208
502502
801802
801802
800AAA
800800
800800
801800
801800
502502
205205
0A41A4
ENDCHAR
STARTCHAR Wcircumflex
ENCODING 372
SWIDTH 534 0
DWIDTH 15 0
BBX 13 23 1 0
BITMAP
00190000
00220000
00404000
00000000
80000080
80000080
80000080
80000040
40000140
50000140
50190140
50220140
10220100
10220200
20150200
200C0200
20080200
20150200
20220200
20808200
22405200
25001500
14000500
ENDCHAR
STARTCHAR wcircumflex
ENCODING 373
SWIDTH 396 0
DWIDTH 11 0
BBX 10 18 1 0
BITMAP
008000
022000
051400
000000
000000
400050
800040
800080
808080
816080
812080
815080
80D080
40C080
526140
551540
680A40
200200
ENDCHAR
STARTCHAR Ycircumflex
ENCODING 374
SWIDTH 370 0
DWIDTH 10 0
BBX 10 23 0 0
BITMAP
006000
014800
010400
000000
800020
500020
200080
140080
080140
050200
020500
014800
009400
00A000
006000
001000
001000
001000
001000
001000
001000
001000
001000
ENDCHAR
STARTCHAR ycircumflex
ENCODING 375
SWIDTH 285 0
DWIDTH 8 0
BBX 8 23 0 -5
BITMAP
0140
0550
0820
0000
0000
5005
1004
2008
2008
1414
0410
0820
0820
0550
0140
0280
0280
0140
0100
0200
0200
0500
6400
ENDCHAR
STARTCHAR Ydieresis
ENCODING 376
SWIDTH 370 0
DWIDTH 10 0
BBX 10 23 0 0
BITMAP
010400
014800
014800
000000
800020
500020
200080
140080
080140
050200
020500
014800
009400
00A000
006000
001000
001000
001000
001000
001000
001000
001000
001000
ENDCHAR
STARTCHAR uni0237
ENCODING 567
SWIDTH 141 0
DWIDTH 4 0
BBX 5 18 -2 -5
BITMAP
0140
0140
0140
0140
0140
0140
0140
0140
0140
0140
0140
0140
0140
0140
0140
0200
0600
A400
ENDCHAR
STARTCHAR circumflex
ENCODING 710
SWIDTH 280 0
DWIDTH 8 0
BBX 4 3 2 15
BITMAP
24
59
82
ENDCHAR
STARTCHAR ring
ENCODING 730
SWIDTH 238 0
DWIDTH 7 0
BBX 4 4 1 14
BITMAP
19
52
52
19
ENDCHAR
STARTCHAR tilde
ENCODING 732
SWIDTH 301 0
DWIDTH 8 0
BBX 6 2 1 15
BITMAP
2910
5190
ENDCHAR
STARTCHAR gravecomb
ENCODING 768
SWIDTH 0 0
DWIDTH 0 0
BBX 2 3 2 15
BITMAP
80
50
20
ENDCHAR
STARTCHAR acutecomb
ENCODING 769
SWIDTH 0 0
DWIDTH 0 0
BBX 2 3 2 15
BITMAP
20
80
40
ENDCHAR
STARTCHAR uni0302
ENCODING 770
SWIDTH 0 0
DWIDTH 0 0
BBX 4 3 2 15
BITMAP
24
59
82
ENDCHAR
STARTCHAR tildecomb
ENCODING 771
SWIDTH 0 0
DWIDTH 0 0
BBX 6 2 1 15
BITMAP
2910
5190
ENDCHAR
STARTCHAR uni0307
ENCODING 775
SWIDTH 0 0
DWIDTH 0 0
BBX 2 3 1 14
BITMAP
50
50
50
ENDCHAR
STARTCHAR uni0308
ENCODING 776
SWIDTH 0 0
DWIDTH 0 0
BBX 4 3 1 14
BITMAP
51
52
51
ENDCHAR
STARTCHAR uni030A
ENCODING 778
SWIDTH 0 0
DWIDTH 0 0
BBX 4 4 1 14
BITMAP
19
52
52
19
ENDCHAR
STARTCHAR uni0327
ENCODING 807
SWIDTH 0 0
DWIDTH 0 0
BBX 3 5 2 -5
BITMAP
50
A4
08
08
A0
ENDCHAR
STARTCHAR Wgrave
ENCODING 7808
SWIDTH 534 0
DWIDTH 15 0
BBX 13 23 1 0
BITMAP
00100000
00200000
00040000
00000000
80000080
80000080
80000080
80000040
40000140
50000140
50190140
50220140
10220100
10220200
20150200
200C0200
20080200
20150200
20220200
20808200
22405200
25001500
14000500
ENDCHAR
STARTCHAR wgrave
ENCODING 7809
SWIDTH 396 0
DWIDTH 11 0
BBX 10 18 1 0
BITMAP
020000
014000
008000
000000
000000
400050
800040
800080
808080
816080
812080
815080
80D080
40C080
526140
551540
680A40
200200
ENDCHAR
STARTCHAR Wacute
ENCODING 7810
SWIDTH 534 0
DWIDTH 15 0
BBX 13 23 1 0
BITMAP
00014000
00020000
00040000
00000000
80000080
80000080
80000080
80000040
40000140
50000140
50190140
50220140
10220100
10220200
20150200
200C0200
20080200
20150200
20220200
20808200
22405200
25001500
14000500
ENDCHAR
STARTCHAR wacute
ENCODING 7811
SWIDTH 396 0
DWIDTH 11 0
BBX 10 18 1 0
BITMAP
002000
005000
008000
000000
000000
400050
800040
800080
808080
816080
812080
815080
80D080
40C080
526140
551540
680A40
200200
ENDCHAR
STARTCHAR Wdieresis
ENCODING 7812
SWIDTH 534 0
DWIDTH 15 0
BBX 13 23 1 0
BITMAP
00110000
00220000
00120000
00000000
80000080
80000080
80000080
80000040
40000140
50000140
50190140
50220140
10220100
10220200
20150200
200C0200
20080200
20150200
20220200
20808200
22405200
25001500
14000500
ENDCHAR
STARTCHAR wdieresis
ENCODING 7813
SWIDTH 396 0
DWIDTH 11 0
BBX 10 17 1 0
BITMAP
011400
011400
011400
000000
400050
800040
800080
808080
816080
812080
815080
80D080
40C080
526140
551540
680A40
200200
ENDCHAR
STARTCHAR uni1E9E
ENCODING 7838
SWIDTH 375 0
DWIDTH 11 0
BBX 8 19 1 0
BITMAP
0AA0
2018
2008
5005
5005
5005
5008
5298
5528
5295
5002
5002
5002
5002
5002
5002
5005
5008
5AA0
ENDCHAR
STARTCHAR Ygrave
ENCODING 7922
SWIDTH 370 0
DWIDTH 10 0
BBX 10 23 0 0
BITMAP
014000
008000
005000
000000
800020
500020
200080
140080
080140
050200
020500
014800
009400
00A000
006000
001000
001000
001000
001000
001000
001000
001000
001000
ENDCHAR
STARTCHAR ygrave
ENCODING 7923
SWIDTH 285 0
DWIDTH 8 0
BBX 8 23 0 -5
BITMAP
0500
0200
0140
0000
0000
5005
1004
2008
2008
1414
0410
0820
0820
0550
0140
0280
0280
0140
0100
0200
0200
0500
6400
ENDCHAR
STARTCHAR endash
ENCODING 8211
SWIDTH 425 0
DWIDTH 12 0
BBX 10 1 1 6
BITMAP
6AAA90
ENDCHAR
STARTCHAR emdash
ENCODING 8212
SWIDTH 770 0
DWIDTH 22 0
BBX 20 1 1 6
BITMAP
6AAAAAAAA9
ENDCHAR
STARTCHAR quoteleft
ENCODING 8216
SWIDTH 145 0
DWIDTH 4 0
BBX 2 5 1 14
BITMAP
20
80
80
80
80
ENDCHAR
STARTCHAR quoteright
ENCODING 8217
SWIDTH 145 0
DWIDTH 4 0
BBX 2 5 1 14
BITMAP
20
20
20
20
80
ENDCHAR
STARTCHAR quotesinglbase
ENCODING 8218
SWIDTH 145 0
DWIDTH 4 0
BBX 3 5 0 -2
BITMAP
14
14
14
14
60
ENDCHAR
STARTCHAR quotedblleft
ENCODING 8220
SWIDTH 219 0
DWIDTH 6 0
BBX 4 5 1 14
BITMAP
22
85
88
88
84
ENDCHAR
STARTCHAR quotedblright
ENCODING 8221
SWIDTH 219 0
DWIDTH 6 0
BBX 4 5 1 14
BITMAP
22
22
22
22
89
ENDCHAR
STARTCHAR quotedblbase
ENCODING 8222
SWIDTH 219 0
DWIDTH 6 0
BBX 5 5 0 -2
BITMAP
1440
1440
1440
1540
6200
ENDCHAR
STARTCHAR bullet
ENCODING 8226
SWIDTH 355 0
DWIDTH 10 0
BBX 8 7 1 6
BITMAP
0BE0
2FF8
7FFC
7FFD
3FFC
1FF4
0140
ENDCHAR
STARTCHAR ellipsis
ENCODING 8230
SWIDTH 651 0
DWIDTH 18 0
BBX 14 3 2 0
BITMAP
40010010
80050020
80050020
ENDCHAR
STARTCHAR guilsinglleft
ENCODING 8249
SWIDTH 263 0
DWIDTH 7 0
BBX 5 11 1 3
BITMAP
0040
0180
0200
0800
2000
8000
6000
1400
0500
0240
0080
ENDCHAR
STARTCHAR guilsinglright
ENCODING 8250
SWIDTH 263 0
DWIDTH 7 0
BBX 5 11 1 2
BITMAP
8000
2000
0800
0200
0180
0080
0240
0500
1400
5000
4000
ENDCHAR
STARTCHAR fraction
ENCODING 8260
SWIDTH 152 0
DWIDTH 4 0
BBX 10 19 -3 0
BITMAP
000020
000050
000080
000140
000200
000500
000800
001400
002000
005000
008000
014000
020000
050000
080000
140000
200000
500000
800000
ENDCHAR
STARTCHAR uni2074
ENCODING 8308
SWIDTH 247 0
DWIDTH 7 0
BBX 5 8 1 11
BITMAP
0800
1400
2500
1500
8500
AA40
0500
0500
ENDCHAR
STARTCHAR Euro
ENCODING 8364
SWIDTH 391 0
DWIDTH 11 0
BBX 10 19 0 0
BITMAP
002A90
018010
020000
050000
080000
080000
080000
080000
6AA400
140000
6AA400
080000
080000
080000
080000
050000
020000
008010
002A90
ENDCHAR
STARTCHAR trademark
ENCODING 8482
SWIDTH 506 0
DWIDTH 14 0
BBX 13 10 0 10
BITMAP
7FD60180
05069A80
05052480
05052880
05052480
05052480
05052880
05052480
05050080
05050080
ENDCHAR
STARTCHAR minus
ENCODING 8722
SWIDTH 557 0
DWIDTH 16 0
BBX 14 1 1 8
BITMAP
BFFFFFD0
ENDCHAR
STARTCHAR uni2215
ENCODING 8725
SWIDTH 259 0
DWIDTH 7 0
BBX 7 20 0 0
BITMAP
0008
0008
0014
0020
0020
0050
0080
0080
0140
0200
0200
0500
0400
0800
0400
1000
2000
1000
4000
8000
ENDCHAR
STARTCHAR .notdef
ENCODING -1
SWIDTH 500 0
DWIDTH 14 0
BBX 12 26 1 -6
BITMAP
BFFFFE
B5555E
A0000A
A0000A
A0000A
A0000A
A0000A
A0000A
A0000A
A0000A
A0000A
A0000A
A0000A
A0000A
A0000A
A0000A
A0000A
A0000A
A0000A
A0000A
A0000A
A0000A
A0000A
A0000A
BFFFFE
155554
ENDCHAR
STARTCHAR NULL
ENCODING -1
SWIDTH 600 0
DWIDTH 17 0
BBX 1 1 0 0
BITMAP
00
ENDCHAR
STARTCHAR acutecomb.case
ENCODING -1
SWIDTH 0 0
DWIDTH 0 0
BBX 2 3 2 20
BITMAP
10
80
40
ENDCHAR
STARTCHAR uni0302.case
ENCODING -1
SWIDTH 0 0
DWIDTH 0 0
BBX 4 3 2 20
BITMAP
24
88
41
ENDCHAR
STARTCHAR uni0308.case
ENCODING -1
SWIDTH 0 0
DWIDTH 0 0
BBX 4 3 1 20
BITMAP
51
52
52
ENDCHAR
STARTCHAR uni0307.case
ENCODING -1
SWIDTH 0 0
DWIDTH 0 0
BBX 2 3 1 20
BITMAP
50
50
50
ENDCHAR
STARTCHAR gravecomb.case
ENCODING -1
SWIDTH 0 0
DWIDTH 0 0
BBX 2 3 2 20
BITMAP
40
80
10
ENDCHAR
STARTCHAR uni030A.case
ENCODING -1
SWIDTH 0 0
DWIDTH 0 0
BBX 4 3 1 20
BITMAP
29
52
29
ENDCHAR
STARTCHAR tildecomb.case
ENCODING -1
SWIDTH 0 0
DWIDTH 0 0
BBX 6 2 1 20
BITMAP
2810
5280
ENDCHAR
ENDFONT
